<svg width="32" height="32" viewBox="0 0 32 32" fill="none" xmlns="http://www.w3.org/2000/svg">
<rect width="32" height="32" rx="10" fill="#D9D9D9"/>
<path fill-rule="evenodd" clip-rule="evenodd" d="M8.86868 21.8333C8.86868 21.651 8.94318 21.4761 9.07578 21.3472C9.20838 21.2183 9.38823 21.1458 9.57575 21.1458H23.7172C23.9047 21.1458 24.0845 21.2183 24.2171 21.3472C24.3497 21.4761 24.4242 21.651 24.4242 21.8333C24.4242 22.0157 24.3497 22.1905 24.2171 22.3195C24.0845 22.4484 23.9047 22.5208 23.7172 22.5208H9.57575C9.38823 22.5208 9.20838 22.4484 9.07578 22.3195C8.94318 22.1905 8.86868 22.0157 8.86868 21.8333ZM8.86868 16.3333C8.86868 16.151 8.94318 15.9761 9.07578 15.8472C9.20838 15.7183 9.38823 15.6458 9.57575 15.6458H23.7172C23.9047 15.6458 24.0845 15.7183 24.2171 15.8472C24.3497 15.9761 24.4242 16.151 24.4242 16.3333C24.4242 16.5157 24.3497 16.6905 24.2171 16.8195C24.0845 16.9484 23.9047 17.0208 23.7172 17.0208H9.57575C9.38823 17.0208 9.20838 16.9484 9.07578 16.8195C8.94318 16.6905 8.86868 16.5157 8.86868 16.3333ZM8.86868 10.8333C8.86868 10.651 8.94318 10.4761 9.07578 10.3472C9.20838 10.2183 9.38823 10.1458 9.57575 10.1458H23.7172C23.9047 10.1458 24.0845 10.2183 24.2171 10.3472C24.3497 10.4761 24.4242 10.651 24.4242 10.8333C24.4242 11.0157 24.3497 11.1905 24.2171 11.3195C24.0845 11.4484 23.9047 11.5208 23.7172 11.5208H9.57575C9.38823 11.5208 9.20838 11.4484 9.07578 11.3195C8.94318 11.1905 8.86868 11.0157 8.86868 10.8333Z" fill="#8F0000"/>
</svg>
